# xmcd
#
# Track frame offsets:
#	150
#	46545
#	68062
#	154292
#	170157
#	193990
#	220530
#	234647
#	280687
#	311617
#
# Disc length: 4634 seconds
#
# Revision: 1
# Processed by: cddbd v1.5PL3 Copyright (c) Steve Scherf et al.
# Submitted via: CDex 1.50Beta5
#
DISCID=8a12180a
DTITLE=Parliament/Funkadelic - Live 1976 - 93 4/4
DYEAR=1900
DGENRE=Blues
TTITLE0=P-Funk ( Wants To Funk You Up )
TTITLE1=You Do Me
TTITLE2=Nickel Bag O' Solos
TTITLE3=Dope Dog
TTITLE4=I Call My Baby Pussy
TTITLE5=Lampin - Microphone Flend Underground Angel
TTITLE6=Yank My Doodle Sum 'Else
TTITLE7=I Got A Thing
TTITLE8=All Your Goodies Are Gone
TTITLE9=Lifted
EXTD=
EXTT0=
EXTT1=
EXTT2=
EXTT3=
EXTT4=
EXTT5=
EXTT6=
EXTT7=
EXTT8=
EXTT9=
PLAYORDER=
